<svg id="icon-htmlacademy" viewBox="0 0 28 35" fill="none" xmlns="http://www.w3.org/2000/svg">
<path d="M13.9689 0.0444336H13.8689L0.368896 1.44443V26.1444L13.8689 34.1444L27.2689 26.1444V1.44443L13.9689 0.0444336ZM25.3689 12.1444L13.8689 5.34443V5.24443H13.7689L13.6689 5.14443V5.24443L2.2689 12.1444V3.14443L13.7689 1.94443L25.3689 3.14443V12.1444ZM13.7689 6.84443L25.2689 13.5444L20.7689 16.1444L13.6689 11.9444V13.3444L19.5689 16.8444L18.6689 17.3444L13.6689 14.3444V15.7444L17.4689 18.0444L16.6689 18.5444L13.6689 16.7444V18.1444L15.5689 19.2444L13.7689 20.3444L2.3689 13.6444L13.7689 6.84443ZM2.2689 15.1444L13.6689 21.9444V22.9444L5.7689 18.2444V19.6444L13.7689 24.4444V25.5444L5.7689 20.8444V22.2444L13.7689 27.0444L21.8689 22.1444V16.9444L25.2689 14.9444V24.9444L13.7689 31.8444L2.2689 25.0444V15.1444Z"/>
</svg>
