<svg width="47" height="28" viewBox="0 0 47 28" fill="none" xmlns="http://www.w3.org/2000/svg">
<path d="M43.0665 0.11377H3.93347C1.71459 0.11377 0 1.7892 0 3.9574V23.1756C0 25.3438 1.71459 27.0192 3.93347 27.0192H43.0665C45.2854 27.0192 47 25.3438 47 23.1756V3.9574C47 1.88776 45.1845 0.11377 43.0665 0.11377ZM3.02575 24.7524V2.8733H43.5708V24.7524H3.02575Z" fill="#63D1BB"/>
<path d="M6.95923 20.909H39.6373V6.71716H6.95923V20.909ZM23.5 8.5897C26.4249 8.5897 28.8455 10.955 28.8455 13.8131C28.8455 16.6712 26.4249 19.0365 23.5 19.0365C20.5751 19.0365 18.1545 16.6712 18.1545 13.8131C18.1545 10.8565 20.5751 8.5897 23.5 8.5897Z" fill="#63D1BB"/>
</svg>
