<svg width="33" height="33" viewBox="0 0 33 33" fill="none" xmlns="http://www.w3.org/2000/svg">
<path d="M3.02752 32.4553H15.6422V18.775H3.02752V32.4553ZM31.3853 9.2283H24.0183C24.5229 8.93304 25.0275 8.7362 25.4312 8.44094C27.0459 7.35833 27.8532 5.88203 27.8532 4.50416C27.8532 3.32313 27.2477 2.33892 26.4404 1.64999C25.633 0.961052 24.5229 0.567383 23.4128 0.567383C22.2018 0.567383 20.9908 0.961052 20.0826 1.64999C18.5688 2.63418 17.4587 4.11048 16.6514 5.68519C16.6514 5.78361 16.5505 5.88203 16.5505 5.88203C16.2477 5.29151 15.945 4.70099 15.5413 4.11047C14.8349 3.12628 14.0275 2.2405 13.0183 1.64999C12.0092 1.05947 10.8991 0.567383 9.68807 0.567383C8.47706 0.567383 7.36697 1.05948 6.45871 1.84684C5.65137 2.63419 5.04587 3.7168 5.04587 4.89783C5.04587 5.58677 5.2477 6.37412 5.65137 7.06306C6.25687 7.94883 7.06422 8.63778 8.27523 9.2283H1.61467C0.706413 9.2283 0 9.91723 0 10.803V16.6098H15.5413V9.2283H17.4587V16.6098H33V10.803C33 9.91723 32.2936 9.2283 31.3853 9.2283ZM8.88073 6.96465C8.27522 6.57097 7.87155 6.17729 7.66972 5.88203C7.46788 5.48835 7.36696 5.19309 7.36696 4.89783C7.36696 4.40574 7.56881 3.91364 8.0734 3.42154C8.47707 3.02786 9.08256 2.73261 9.68807 2.73261C10.3945 2.73261 11.1009 2.92944 11.7064 3.42154C12.7156 4.11048 13.7248 5.19309 14.3303 6.57096C14.633 7.2599 14.9358 7.94884 15.1376 8.63778C12.0092 8.34252 9.99082 7.65358 8.88073 6.96465ZM19.4771 5.38993C20.0826 4.60258 20.6881 3.91364 21.3945 3.51997C22.1009 3.02787 22.8073 2.83103 23.4128 2.83103C24.0183 2.83103 24.5229 3.02787 24.9266 3.32313C25.3303 3.61839 25.5321 4.01206 25.5321 4.50416C25.5321 4.99626 25.2294 5.78361 24.0183 6.57096C22.9083 7.35832 20.8899 8.2441 17.8624 8.83461C18.1651 7.65358 18.7706 6.37413 19.4771 5.38993ZM17.4587 32.4553H30.0734V18.775H17.4587V32.4553Z" fill="#63D1BB"/>
</svg>
