<svg width="33" height="39" viewBox="0 0 33 39" fill="none" xmlns="http://www.w3.org/2000/svg">
<path d="M16.5 38.5306C25.575 38.5306 33 31.2015 33 22.2438C23.925 22.2438 16.5 29.471 16.5 38.5306ZM4.74375 17.2559C4.74375 19.8007 6.80625 21.7348 9.28125 21.7348C10.2094 21.7348 11.1375 21.4294 11.8594 20.9205V21.2258C11.8594 23.7706 13.9219 25.7047 16.3969 25.7047C18.975 25.7047 20.9344 23.6689 20.9344 21.2258V20.9205C21.6562 21.4294 22.5844 21.7348 23.5125 21.7348C26.0906 21.7348 28.05 19.6989 28.05 17.2559C28.05 15.4236 27.0188 13.8968 25.4719 13.1842C27.0188 12.4717 28.05 10.9448 28.05 9.11249C28.05 6.56768 25.9875 4.63361 23.5125 4.63361C22.5844 4.63361 21.6562 4.93899 20.9344 5.44795V5.14258C20.9344 2.59776 18.8719 0.663696 16.3969 0.663696C13.8187 0.663696 11.8594 2.69955 11.8594 5.14258V5.44795C11.1375 4.93899 10.2094 4.63361 9.28125 4.63361C6.70312 4.63361 4.74375 6.66947 4.74375 9.11249C4.74375 10.9448 5.775 12.4717 7.32188 13.1842C5.87813 13.8968 4.74375 15.4236 4.74375 17.2559ZM16.5 8.60353C19.0781 8.60353 21.0375 10.6394 21.0375 13.0824C21.0375 15.6272 18.975 17.5613 16.5 17.5613C13.9219 17.5613 11.9625 15.5254 11.9625 13.0824C11.9625 10.6394 13.9219 8.60353 16.5 8.60353ZM0 22.2438C0 31.2015 7.425 38.5306 16.5 38.5306C16.5 29.471 9.075 22.2438 0 22.2438Z" fill="#63D1BB"/>
</svg>
