<svg width="35" height="35" viewBox="0 0 35 35" fill="none" xmlns="http://www.w3.org/2000/svg">
<path d="M0.305558 14.5536C-0.101853 16.6239 -0.101853 18.6941 0.305558 20.7644L4.48152 17.6097L0.305558 14.5536Z" fill="#63D1BB"/>
<path d="M24.852 2.23022C19.9631 0.0613559 14.2593 0.0613559 9.26855 2.62456L16.9075 8.14531L24.852 2.23022Z" fill="#63D1BB"/>
<path d="M34.5281 13.666L29.6392 17.3137L34.6299 20.9613C35.1392 18.5953 35.1392 16.0321 34.5281 13.666Z" fill="#63D1BB"/>
<path d="M9.37048 32.5944C14.2594 35.059 20.2687 35.2562 25.3614 32.693L17.1113 26.6793L9.37048 32.5944Z" fill="#63D1BB"/>
<path d="M8.04644 14.8486L1.73157 10.3137C1.42601 11.0038 1.12045 11.6939 0.916748 12.384L6.31494 16.3274L8.04644 14.8486Z" fill="#63D1BB"/>
<path d="M18.9446 25.3976L27.3984 31.5099C27.7039 31.3127 28.0095 31.1156 28.2132 30.9184C28.5187 30.7212 28.8243 30.4255 29.1298 30.1297L20.6761 24.0175L18.9446 25.3976Z" fill="#63D1BB"/>
<path d="M11.6112 12.1873L4.07408 6.76514C3.56482 7.25806 3.15741 7.84957 2.75 8.44108L9.77784 13.5675L11.6112 12.1873Z" fill="#63D1BB"/>
<path d="M22.5094 22.7355L30.7595 28.7492C31.2687 28.2563 31.6761 27.6648 32.0836 27.0733L24.2409 21.3553L22.5094 22.7355Z" fill="#63D1BB"/>
<path d="M15.1761 9.52553L7.33342 3.80762C7.12972 3.9062 6.92601 4.10337 6.72231 4.20196C6.3149 4.49771 5.90749 4.79346 5.60193 5.1878L13.4446 10.8071L15.1761 9.52553Z" fill="#63D1BB"/>
<path d="M26.0742 19.9754L33.2039 25.1018C33.5095 24.4117 33.815 23.8202 34.1206 23.1301L27.9076 18.5952L26.0742 19.9754Z" fill="#63D1BB"/>
<path d="M26.8892 3.31458L0.916748 22.9329C1.12045 23.623 1.42601 24.3131 1.73157 25.0032L28.7225 4.59618C28.2133 4.10325 27.6022 3.70891 26.8892 3.31458Z" fill="#63D1BB"/>
<path d="M31.2687 7.15914C30.9632 6.7648 30.6576 6.37046 30.352 6.07471L2.85181 26.7775C3.05551 27.2704 3.36107 27.6648 3.66663 27.9605C3.76848 28.1577 3.97219 28.3549 4.07404 28.4535L31.778 7.75065C31.5743 7.55348 31.4724 7.35631 31.2687 7.15914Z" fill="#63D1BB"/>
<path d="M32.8984 9.52527L5.70374 30.0309C6.213 30.5238 6.82412 31.0168 7.43523 31.4111L33.9169 11.497C33.6114 10.8069 33.3058 10.1168 32.8984 9.52527Z" fill="#63D1BB"/>
</svg>
