<svg width="101" height="77" viewBox="0 0 101 77" fill="none" xmlns="http://www.w3.org/2000/svg">
<path d="M97.2706 18.1C97.2706 18.1 96.3698 11.1 93.467 7.99997C89.8636 3.99997 85.7597 3.89995 83.958 3.69995C70.6453 2.69995 50.6262 2.69995 50.6262 2.69995H50.5261C50.5261 2.69995 30.507 2.69995 17.1944 3.69995C15.2925 3.89995 11.2887 3.99997 7.68531 7.99997C4.88264 11.1 3.88169 18.1 3.88169 18.1C3.88169 18.1 2.98083 26.3 2.98083 34.5V42.2C2.98083 50.4 3.88169 58.6 3.88169 58.6C3.88169 58.6 4.78255 65.6 7.68531 68.7C11.2887 72.7 16.0933 72.6 18.1953 73C25.8026 73.8 50.6262 74 50.6262 74C50.6262 74 70.6453 74 83.958 73C85.8598 72.8 89.8636 72.7 93.467 68.7C96.2697 65.6 97.2706 58.6 97.2706 58.6C97.2706 58.6 98.1715 50.4 98.1715 42.2V34.5C98.1715 26.3 97.2706 18.1 97.2706 18.1Z" fill="#63D1BB"/>
<path d="M50.5262 76.8C49.5252 76.8 25.5023 76.5 17.8951 75.8H17.795H17.6949C17.3946 75.7 16.9943 75.7 16.5939 75.6C14.0915 75.3 9.387 74.7 5.78356 70.6C2.38032 67 1.37937 59.8 1.27927 59C1.27927 58.7 0.27832 50.5 0.27832 42.3V34.6C0.27832 26.3 1.17919 18.2 1.17919 17.9V17.8C1.27928 17 2.38033 9.89998 5.68348 6.19998C9.68729 1.79998 14.1916 1.30001 16.3937 1.10001C16.5939 1.10001 16.7941 1.1 16.8942 1H16.9943C30.3069 0 50.326 0 50.5262 0H50.6263C50.8265 0 70.8456 0 84.1582 1H84.2583C84.4585 1 84.5586 1.00001 84.7588 1.10001C86.9609 1.30001 91.4652 1.79998 95.469 6.19998C98.8722 9.79998 99.8732 17 99.9733 17.8C99.9733 18.1 100.974 26.3 100.974 34.6V42.3C100.974 50.6 100.073 58.7 99.9733 59V59.1C99.8732 59.9 98.7721 67.1 95.469 70.7C91.4652 75.1 86.9609 75.6 84.7588 75.8C84.5586 75.8 84.3584 75.8 84.2583 75.9H84.1582C70.8456 76.8 50.7264 76.8 50.5262 76.8ZM18.5958 70.4C26.1029 71.1 49.8255 71.4 50.6263 71.4C51.327 71.4 70.7455 71.4 83.6578 70.4C83.8579 70.4 84.0581 70.4 84.2583 70.3C86.06 70.1 88.8627 69.8 91.4652 67C93.2669 65 94.3679 60.1 94.5681 58.4C94.6682 57.9 95.469 50 95.469 42.3V34.6C95.469 26.8 94.5681 19 94.468 18.5C94.1677 16.1 93.0667 11.7 91.3651 10C88.7626 7.1 85.9599 6.89998 84.1582 6.69998C83.958 6.69998 83.7578 6.70001 83.5576 6.60001C70.4452 5.60001 50.7264 5.60001 50.5262 5.60001H50.4261C50.2259 5.60001 30.407 5.60001 17.3946 6.60001C17.1944 6.60001 16.9942 6.59998 16.7941 6.69998C14.9923 6.89998 12.1897 7.2 9.5872 10C7.78549 12 6.68443 16.9 6.48424 18.6C6.38415 19.2 5.58338 27 5.58338 34.7V42.4C5.58338 50.1 6.48424 58 6.48424 58.5C6.78453 60.9 7.88558 65.3 9.5872 67C11.8894 69.6 14.8923 70 17.0944 70.3C17.6949 70.2 18.0953 70.3 18.5958 70.4Z" fill="white"/>
<path d="M38.6146 20.5V56.2L68.443 38.4L38.6146 20.5Z" fill="white"/>
</svg>
