<svg width="55" height="24" viewBox="0 0 55 24" fill="none" xmlns="http://www.w3.org/2000/svg">
<path d="M40.9467 5.83315C37.307 4.84524 33.0607 4.15369 28.41 4.15369C25.478 4.15369 22.8493 4.35128 20.625 4.74644L13.75 0.103271H0.10114L5.9651 6.2283H14.4577C9.80697 7.80895 7.58272 9.68598 7.58272 9.68598V13.44C7.58272 13.44 9.90811 15.317 14.5588 16.8977H5.86396L0 23.0227H13.6489L20.5239 18.3795C22.8492 18.7747 25.3768 18.9723 28.3088 18.9723C32.8584 18.9723 37.1048 18.2808 40.8456 17.2929C39.6324 15.5146 38.9246 13.6376 38.9246 11.4642C39.0257 9.48838 39.8345 7.61138 40.9467 5.83315Z" fill="#63D1BB"/>
<path d="M44.4853 6.82092C43.171 8.40157 42.4633 9.98221 42.4633 11.5629C42.4633 13.1435 43.171 14.7242 44.4853 16.3048C50.9559 14.1314 55 11.5629 55 11.5629C55 11.5629 50.9559 8.99432 44.4853 6.82092Z" fill="#63D1BB"/>
</svg>
